ffmpeg started on 2025-07-06 at 17:33:07
Report written to "D:\Convert\FFMetrics\reports\ssim_report-6.txt"
Log level: 32
Command line:
ffmpeg -hide_banner -nostdin -i "G:\\\xc0\xed\xe8\xec\xe5\\\xce\xed\xe3\xee\xe8\xed\xe3\xe8\\!_37_\xc7\xe8\xec\xe0_2025\\JamClub\\\xc3\xee\xeb\xf3\xe1\xe0\xff \xf8\xea\xe0\xf2\xf3\xeb\xea\xe0\\JamClub_Ao_no_Hako_04_1080p_HEVC.mkv" -i "G:\\\xc0\xed\xe8\xec\xe5\\\xce\xed\xe3\xee\xe8\xed\xe3\xe8\\!_37_\xc7\xe8\xec\xe0_2025\\JamClub\\\xc3\xee\xeb\xf3\xe1\xe0\xff \xf8\xea\xe0\xf2\xf3\xeb\xea\xe0\\JamClub_Ao_no_Hako_04_1080p.mp4" -lavfi "[0:v]settb=AVTB,setpts=PTS-STARTPTS,format=pix_fmts=yuv420p10,fps=24000/1001,scale=1920:1080:flags=bicubic[main];[1:v]settb=AVTB,setpts=PTS-STARTPTS,format=pix_fmts=yuv420p,fps=24000/1001,scale=1920:1080:flags=bicubic[ref];[main][ref]ssim=eof_action=endall:stats_file='D\\:/Convert/FFMetrics/logs/ssim_logfile-6.txt'" -f null -
Input #0, matroska,webm, from 'G:\Аниме\Онгоинги\!_37_Зима_2025\JamClub\Голубая шкатулка\JamClub_Ao_no_Hako_04_1080p_HEVC.mkv':
  Metadata:
    COMPATIBLE_BRANDS: isomiso2avc1mp41
    MAJOR_BRAND     : isom
    MINOR_VERSION   : 512
    ENCODER         : Lavf61.7.100
  Duration: 00:23:59.25, start: -0.001000, bitrate: 1195 kb/s
  Stream #0:0: Video: hevc (Main 10), yuv420p10le(tv, bt709, progressive), 1920x1080 [SAR 1:1 DAR 16:9], 23.98 fps, 23.98 tbr, 1k tbn (default)
      Metadata:
        HANDLER_NAME    : VideoHandler
        VENDOR_ID       : [0][0][0][0]
        ENCODER         : Lavc61.19.100 libx265
        BPS             : 998219
        DURATION        : 00:23:59.187708333
        NUMBER_OF_FRAMES: 34506
        NUMBER_OF_BYTES : 179577982
        _STATISTICS_WRITING_APP: mkvpropedit v66.0.0 ('Josie') 64-bit
        _STATISTICS_WRITING_DATE_UTC: 2025-07-03 15:17:07
        _STATISTICS_TAGS: BPS DURATION NUMBER_OF_FRAMES NUMBER_OF_BYTES
  Stream #0:1(eng): Audio: aac (LC), 48000 Hz, stereo, fltp (default)
      Metadata:
        HANDLER_NAME    : SoundHandler
        VENDOR_ID       : [0][0][0][0]
        ENCODER         : Lavc61.19.100 aac
        BPS             : 193506
        DURATION        : 00:23:59.213000000
        NUMBER_OF_FRAMES: 67464
        NUMBER_OF_BYTES : 34812066
        _STATISTICS_WRITING_APP: mkvpropedit v66.0.0 ('Josie') 64-bit
        _STATISTICS_WRITING_DATE_UTC: 2025-07-03 15:17:07
        _STATISTICS_TAGS: BPS DURATION NUMBER_OF_FRAMES NUMBER_OF_BYTES
Input #1, mov,mp4,m4a,3gp,3g2,mj2, from 'G:\Аниме\Онгоинги\!_37_Зима_2025\JamClub\Голубая шкатулка\JamClub_Ao_no_Hako_04_1080p.mp4':
  Metadata:
    major_brand     : isom
    minor_version   : 512
    compatible_brands: isomiso2avc1mp41
    encoder         : Lavf60.16.100
  Duration: 00:23:59.23, start: 0.000000, bitrate: 4676 kb/s
  Stream #1:0[0x1](und): Video: h264 (High) (avc1 / 0x31637661), yuv420p(progressive), 1920x1080 [SAR 1:1 DAR 16:9], 4478 kb/s, 23.98 fps, 23.98 tbr, 90k tbn (default)
      Metadata:
        handler_name    : VideoHandler
        vendor_id       : [0][0][0][0]
  Stream #1:1[0x2](eng): Audio: aac (LC) (mp4a / 0x6134706D), 48000 Hz, stereo, fltp, 191 kb/s (default)
      Metadata:
        handler_name    : SoundHandler
        vendor_id       : [0][0][0][0]
Stream mapping:
  Stream #0:0 (hevc) -> settb:default
  Stream #1:0 (h264) -> settb:default
  ssim:default -> Stream #0:0 (wrapped_avframe)
  Stream #0:1 -> #0:1 (aac (native) -> pcm_s16le (native))
Output #0, null, to 'pipe:':
  Metadata:
    COMPATIBLE_BRANDS: isomiso2avc1mp41
    MAJOR_BRAND     : isom
    MINOR_VERSION   : 512
    encoder         : Lavf61.7.100
  Stream #0:0: Video: wrapped_avframe, yuv420p10le(tv, bt709, progressive), 1920x1080 [SAR 1:1 DAR 16:9], q=2-31, 200 kb/s, 23.98 fps, 23.98 tbn
      Metadata:
        encoder         : Lavc61.19.100 wrapped_avframe
  Stream #0:1(eng): Audio: pcm_s16le, 48000 Hz, stereo, s16, 1536 kb/s (default)
      Metadata:
        HANDLER_NAME    : SoundHandler
        VENDOR_ID       : [0][0][0][0]
        _STATISTICS_TAGS: BPS DURATION NUMBER_OF_FRAMES NUMBER_OF_BYTES
        BPS             : 193506
        DURATION        : 00:23:59.213000000
        NUMBER_OF_FRAMES: 67464
        NUMBER_OF_BYTES : 34812066
        _STATISTICS_WRITING_APP: mkvpropedit v66.0.0 ('Josie') 64-bit
        _STATISTICS_WRITING_DATE_UTC: 2025-07-03 15:17:07
        encoder         : Lavc61.19.100 pcm_s16le
frame=  108 fps=0.0 q=-0.0 size=N/A time=00:00:04.50 bitrate=N/A speed=8.72x    frame=  268 fps=257 q=-0.0 size=N/A time=00:00:11.17 bitrate=N/A speed=10.7x    frame=  459 fps=295 q=-0.0 size=N/A time=00:00:19.14 bitrate=N/A speed=12.3x    frame=  705 fps=341 q=-0.0 size=N/A time=00:00:29.40 bitrate=N/A speed=14.2x    frame=  957 fps=371 q=-0.0 size=N/A time=00:00:39.91 bitrate=N/A speed=15.5x    frame= 1215 fps=391 q=-0.0 size=N/A time=00:00:50.67 bitrate=N/A speed=16.3x    frame= 1434 fps=397 q=-0.0 size=N/A time=00:00:59.80 bitrate=N/A speed=16.5x    frame= 1654 fps=401 q=-0.0 size=N/A time=00:01:08.98 bitrate=N/A speed=16.7x    frame= 1870 fps=403 q=-0.0 size=N/A time=00:01:17.99 bitrate=N/A speed=16.8x    frame= 2078 fps=402 q=-0.0 size=N/A time=00:01:26.66 bitrate=N/A speed=16.8x    frame= 2288 fps=403 q=-0.0 size=N/A time=00:01:35.42 bitrate=N/A speed=16.8x    frame= 2491 fps=402 q=-0.0 size=N/A time=00:01:43.89 bitrate=N/A speed=16.8x    frame= 2694 fps=401 q=-0.0 size=N/A time=00:01:52.36 bitrate=N/A speed=16.7x    frame= 2894 fps=400 q=-0.0 size=N/A time=00:02:00.70 bitrate=N/A speed=16.7x    frame= 3080 fps=398 q=-0.0 size=N/A time=00:02:08.46 bitrate=N/A speed=16.6x    frame= 3272 fps=397 q=-0.0 size=N/A time=00:02:16.46 bitrate=N/A speed=16.5x    frame= 3466 fps=395 q=-0.0 size=N/A time=00:02:24.56 bitrate=N/A speed=16.5x    frame= 3676 fps=396 q=-0.0 size=N/A time=00:02:33.31 bitrate=N/A speed=16.5x    frame= 3934 fps=401 q=-0.0 size=N/A time=00:02:44.08 bitrate=N/A speed=16.7x    frame= 4186 fps=406 q=-0.0 size=N/A time=00:02:54.59 bitrate=N/A speed=16.9x    frame= 4429 fps=409 q=-0.0 size=N/A time=00:03:04.72 bitrate=N/A speed=  17x    frame= 4679 fps=412 q=-0.0 size=N/A time=00:03:15.15 bitrate=N/A speed=17.2x    frame= 4915 fps=414 q=-0.0 size=N/A time=00:03:24.99 bitrate=N/A speed=17.3x    frame= 5154 fps=417 q=-0.0 size=N/A time=00:03:34.96 bitrate=N/A speed=17.4x    frame= 5394 fps=418 q=-0.0 size=N/A time=00:03:44.97 bitrate=N/A speed=17.4x    frame= 5641 fps=421 q=-0.0 size=N/A time=00:03:55.27 bitrate=N/A speed=17.5x    frame= 5877 fps=422 q=-0.0 size=N/A time=00:04:05.11 bitrate=N/A speed=17.6x    frame= 6100 fps=422 q=-0.0 size=N/A time=00:04:14.42 bitrate=N/A speed=17.6x    frame= 6324 fps=423 q=-0.0 size=N/A time=00:04:23.76 bitrate=N/A speed=17.6x    frame= 6545 fps=423 q=-0.0 size=N/A time=00:04:32.98 bitrate=N/A speed=17.6x    frame= 6782 fps=424 q=-0.0 size=N/A time=00:04:42.86 bitrate=N/A speed=17.7x    frame= 7033 fps=426 q=-0.0 size=N/A time=00:04:53.33 bitrate=N/A speed=17.8x    frame= 7252 fps=426 q=-0.0 size=N/A time=00:05:02.46 bitrate=N/A speed=17.8x    frame= 7510 fps=428 q=-0.0 size=N/A time=00:05:13.22 bitrate=N/A speed=17.9x    frame= 7754 fps=430 q=-0.0 size=N/A time=00:05:23.40 bitrate=N/A speed=17.9x    frame= 7995 fps=430 q=-0.0 size=N/A time=00:05:33.45 bitrate=N/A speed=  18x    frame= 8228 fps=431 q=-0.0 size=N/A time=00:05:43.17 bitrate=N/A speed=  18x    frame= 8477 fps=433 q=-0.0 size=N/A time=00:05:53.56 bitrate=N/A speed=  18x    frame= 8696 fps=432 q=-0.0 size=N/A time=00:06:02.69 bitrate=N/A speed=  18x    frame= 8952 fps=434 q=-0.0 size=N/A time=00:06:13.37 bitrate=N/A speed=18.1x    frame= 9218 fps=436 q=-0.0 size=N/A time=00:06:24.46 bitrate=N/A speed=18.2x    frame= 9466 fps=437 q=-0.0 size=N/A time=00:06:34.81 bitrate=N/A speed=18.2x    frame= 9712 fps=438 q=-0.0 size=N/A time=00:06:45.07 bitrate=N/A speed=18.3x    frame= 9966 fps=439 q=-0.0 size=N/A time=00:06:55.66 bitrate=N/A speed=18.3x    frame=10211 fps=440 q=-0.0 size=N/A time=00:07:05.88 bitrate=N/A speed=18.4x    frame=10448 fps=440 q=-0.0 size=N/A time=00:07:15.76 bitrate=N/A speed=18.4x    frame=10718 fps=442 q=-0.0 size=N/A time=00:07:27.02 bitrate=N/A speed=18.4x    frame=10957 fps=443 q=-0.0 size=N/A time=00:07:36.99 bitrate=N/A speed=18.5x    frame=11211 fps=444 q=-0.0 size=N/A time=00:07:47.59 bitrate=N/A speed=18.5x    frame=11456 fps=444 q=-0.0 size=N/A time=00:07:57.81 bitrate=N/A speed=18.5x    frame=11711 fps=445 q=-0.0 size=N/A time=00:08:08.44 bitrate=N/A speed=18.6x    frame=11968 fps=446 q=-0.0 size=N/A time=00:08:19.16 bitrate=N/A speed=18.6x    frame=12227 fps=447 q=-0.0 size=N/A time=00:08:29.96 bitrate=N/A speed=18.7x    frame=12451 fps=447 q=-0.0 size=N/A time=00:08:39.31 bitrate=N/A speed=18.7x    frame=12707 fps=448 q=-0.0 size=N/A time=00:08:49.98 bitrate=N/A speed=18.7x    frame=12941 fps=448 q=-0.0 size=N/A time=00:08:59.74 bitrate=N/A speed=18.7x    frame=13159 fps=448 q=-0.0 size=N/A time=00:09:08.83 bitrate=N/A speed=18.7x    frame=13360 fps=447 q=-0.0 size=N/A time=00:09:17.22 bitrate=N/A speed=18.6x    frame=13609 fps=447 q=-0.0 size=N/A time=00:09:27.60 bitrate=N/A speed=18.7x    frame=13849 fps=448 q=-0.0 size=N/A time=00:09:37.61 bitrate=N/A speed=18.7x    frame=14090 fps=448 q=-0.0 size=N/A time=00:09:47.67 bitrate=N/A speed=18.7x    frame=14333 fps=448 q=-0.0 size=N/A time=00:09:57.80 bitrate=N/A speed=18.7x    frame=14595 fps=449 q=-0.0 size=N/A time=00:10:08.73 bitrate=N/A speed=18.7x    frame=14830 fps=449 q=-0.0 size=N/A time=00:10:18.53 bitrate=N/A speed=18.7x    frame=15074 fps=450 q=-0.0 size=N/A time=00:10:28.71 bitrate=N/A speed=18.8x    frame=15312 fps=450 q=-0.0 size=N/A time=00:10:38.63 bitrate=N/A speed=18.8x    frame=15560 fps=450 q=-0.0 size=N/A time=00:10:48.98 bitrate=N/A speed=18.8x    frame=15784 fps=450 q=-0.0 size=N/A time=00:10:58.32 bitrate=N/A speed=18.8x    frame=16046 fps=451 q=-0.0 size=N/A time=00:11:09.25 bitrate=N/A speed=18.8x    frame=16302 fps=452 q=-0.0 size=N/A time=00:11:19.92 bitrate=N/A speed=18.8x    frame=16528 fps=451 q=-0.0 size=N/A time=00:11:29.35 bitrate=N/A speed=18.8x    frame=16750 fps=451 q=-0.0 size=N/A time=00:11:38.61 bitrate=N/A speed=18.8x    frame=16995 fps=452 q=-0.0 size=N/A time=00:11:48.83 bitrate=N/A speed=18.8x    frame=17222 fps=451 q=-0.0 size=N/A time=00:11:58.30 bitrate=N/A speed=18.8x    frame=17464 fps=452 q=-0.0 size=N/A time=00:12:08.39 bitrate=N/A speed=18.8x    frame=17728 fps=452 q=-0.0 size=N/A time=00:12:19.40 bitrate=N/A speed=18.9x    frame=17972 fps=453 q=-0.0 size=N/A time=00:12:29.58 bitrate=N/A speed=18.9x    frame=18154 fps=451 q=-0.0 size=N/A time=00:12:37.17 bitrate=N/A speed=18.8x    frame=18387 fps=451 q=-0.0 size=N/A time=00:12:46.89 bitrate=N/A speed=18.8x    frame=18616 fps=451 q=-0.0 size=N/A time=00:12:56.44 bitrate=N/A speed=18.8x    frame=18852 fps=451 q=-0.0 size=N/A time=00:13:06.28 bitrate=N/A speed=18.8x    frame=19079 fps=451 q=-0.0 size=N/A time=00:13:15.75 bitrate=N/A speed=18.8x    frame=19270 fps=450 q=-0.0 size=N/A time=00:13:23.71 bitrate=N/A speed=18.8x    frame=19518 fps=451 q=-0.0 size=N/A time=00:13:34.06 bitrate=N/A speed=18.8x    frame=19769 fps=451 q=-0.0 size=N/A time=00:13:44.53 bitrate=N/A speed=18.8x    frame=19989 fps=451 q=-0.0 size=N/A time=00:13:53.70 bitrate=N/A speed=18.8x    frame=20226 fps=451 q=-0.0 size=N/A time=00:14:03.59 bitrate=N/A speed=18.8x    frame=20451 fps=451 q=-0.0 size=N/A time=00:14:12.97 bitrate=N/A speed=18.8x    frame=20667 fps=450 q=-0.0 size=N/A time=00:14:21.98 bitrate=N/A speed=18.8x    frame=20866 fps=450 q=-0.0 size=N/A time=00:14:30.28 bitrate=N/A speed=18.8x    frame=21086 fps=449 q=-0.0 size=N/A time=00:14:39.46 bitrate=N/A speed=18.7x    frame=21347 fps=450 q=-0.0 size=N/A time=00:14:50.34 bitrate=N/A speed=18.8x    frame=21573 fps=450 q=-0.0 size=N/A time=00:14:59.77 bitrate=N/A speed=18.8x    frame=21823 fps=450 q=-0.0 size=N/A time=00:15:10.20 bitrate=N/A speed=18.8x    frame=22058 fps=450 q=-0.0 size=N/A time=00:15:20.00 bitrate=N/A speed=18.8x    frame=22309 fps=451 q=-0.0 size=N/A time=00:15:30.47 bitrate=N/A speed=18.8x    frame=22533 fps=450 q=-0.0 size=N/A time=00:15:39.81 bitrate=N/A speed=18.8x    frame=22792 fps=451 q=-0.0 size=N/A time=00:15:50.61 bitrate=N/A speed=18.8x    frame=23053 fps=452 q=-0.0 size=N/A time=00:16:01.50 bitrate=N/A speed=18.8x    frame=23301 fps=452 q=-0.0 size=N/A time=00:16:11.84 bitrate=N/A speed=18.8x    frame=23553 fps=452 q=-0.0 size=N/A time=00:16:22.35 bitrate=N/A speed=18.9x    frame=23815 fps=453 q=-0.0 size=N/A time=00:16:33.28 bitrate=N/A speed=18.9x    frame=24058 fps=453 q=-0.0 size=N/A time=00:16:43.41 bitrate=N/A speed=18.9x    frame=24309 fps=453 q=-0.0 size=N/A time=00:16:53.88 bitrate=N/A speed=18.9x    frame=24537 fps=453 q=-0.0 size=N/A time=00:17:03.39 bitrate=N/A speed=18.9x    frame=24783 fps=453 q=-0.0 size=N/A time=00:17:13.65 bitrate=N/A speed=18.9x    frame=25040 fps=454 q=-0.0 size=N/A time=00:17:24.37 bitrate=N/A speed=18.9x    frame=25295 fps=454 q=-0.0 size=N/A time=00:17:35.01 bitrate=N/A speed=18.9x    frame=25530 fps=454 q=-0.0 size=N/A time=00:17:44.81 bitrate=N/A speed=18.9x    frame=25781 fps=455 q=-0.0 size=N/A time=00:17:55.28 bitrate=N/A speed=  19x    frame=26034 fps=455 q=-0.0 size=N/A time=00:18:05.83 bitrate=N/A speed=  19x    frame=26281 fps=455 q=-0.0 size=N/A time=00:18:16.13 bitrate=N/A speed=  19x    frame=26536 fps=455 q=-0.0 size=N/A time=00:18:26.77 bitrate=N/A speed=  19x    frame=26776 fps=456 q=-0.0 size=N/A time=00:18:36.78 bitrate=N/A speed=  19x    frame=27038 fps=456 q=-0.0 size=N/A time=00:18:47.70 bitrate=N/A speed=  19x    frame=27267 fps=456 q=-0.0 size=N/A time=00:18:57.26 bitrate=N/A speed=  19x    frame=27482 fps=456 q=-0.0 size=N/A time=00:19:06.22 bitrate=N/A speed=  19x    frame=27692 fps=455 q=-0.0 size=N/A time=00:19:14.98 bitrate=N/A speed=  19x    frame=27912 fps=455 q=-0.0 size=N/A time=00:19:24.16 bitrate=N/A speed=  19x    frame=28129 fps=455 q=-0.0 size=N/A time=00:19:33.21 bitrate=N/A speed=  19x    frame=28382 fps=455 q=-0.0 size=N/A time=00:19:43.76 bitrate=N/A speed=  19x    frame=28608 fps=455 q=-0.0 size=N/A time=00:19:53.19 bitrate=N/A speed=  19x    frame=28841 fps=455 q=-0.0 size=N/A time=00:20:02.91 bitrate=N/A speed=  19x    frame=29018 fps=454 q=-0.0 size=N/A time=00:20:10.29 bitrate=N/A speed=18.9x    frame=29209 fps=453 q=-0.0 size=N/A time=00:20:18.25 bitrate=N/A speed=18.9x    frame=29461 fps=453 q=-0.0 size=N/A time=00:20:28.76 bitrate=N/A speed=18.9x    frame=29691 fps=453 q=-0.0 size=N/A time=00:20:38.36 bitrate=N/A speed=18.9x    frame=29913 fps=453 q=-0.0 size=N/A time=00:20:47.62 bitrate=N/A speed=18.9x    frame=30162 fps=453 q=-0.0 size=N/A time=00:20:58.00 bitrate=N/A speed=18.9x    frame=30398 fps=453 q=-0.0 size=N/A time=00:21:07.84 bitrate=N/A speed=18.9x    frame=30633 fps=453 q=-0.0 size=N/A time=00:21:17.65 bitrate=N/A speed=18.9x    frame=30886 fps=454 q=-0.0 size=N/A time=00:21:28.20 bitrate=N/A speed=18.9x    frame=31147 fps=454 q=-0.0 size=N/A time=00:21:39.08 bitrate=N/A speed=18.9x    frame=31365 fps=454 q=-0.0 size=N/A time=00:21:48.18 bitrate=N/A speed=18.9x    frame=31581 fps=454 q=-0.0 size=N/A time=00:21:57.19 bitrate=N/A speed=18.9x    frame=31813 fps=454 q=-0.0 size=N/A time=00:22:06.86 bitrate=N/A speed=18.9x    frame=32011 fps=453 q=-0.0 size=N/A time=00:22:15.12 bitrate=N/A speed=18.9x    frame=32219 fps=453 q=-0.0 size=N/A time=00:22:23.80 bitrate=N/A speed=18.9x    frame=32453 fps=453 q=-0.0 size=N/A time=00:22:33.56 bitrate=N/A speed=18.9x    frame=32662 fps=452 q=-0.0 size=N/A time=00:22:42.27 bitrate=N/A speed=18.9x    frame=32858 fps=452 q=-0.0 size=N/A time=00:22:50.45 bitrate=N/A speed=18.8x    frame=33059 fps=451 q=-0.0 size=N/A time=00:22:58.83 bitrate=N/A speed=18.8x    frame=33245 fps=451 q=-0.0 size=N/A time=00:23:06.59 bitrate=N/A speed=18.8x    frame=33479 fps=451 q=-0.0 size=N/A time=00:23:16.35 bitrate=N/A speed=18.8x    frame=33696 fps=451 q=-0.0 size=N/A time=00:23:25.40 bitrate=N/A speed=18.8x    frame=33910 fps=450 q=-0.0 size=N/A time=00:23:34.32 bitrate=N/A speed=18.8x    frame=34134 fps=450 q=-0.0 size=N/A time=00:23:43.67 bitrate=N/A speed=18.8x    frame=34354 fps=450 q=-0.0 size=N/A time=00:23:52.84 bitrate=N/A speed=18.8x    [Parsed_ssim_10 @ 000001e5b45a6640] SSIM Y:0.994302 (22.442901) U:0.994360 (22.487255) V:0.994038 (22.245945) All:0.994268 (22.416753)
[out#0/null @ 000001e5b17ac040] video:14827KiB audio:269856KiB subtitle:0KiB other streams:0KiB global headers:0KiB muxing overhead: unknown
frame=34506 fps=450 q=-0.0 Lsize=N/A time=00:23:59.18 bitrate=N/A speed=18.8x    
